<svg width="260" height="87" viewBox="0 0 260 87" fill="none" xmlns="http://www.w3.org/2000/svg">
<g filter="url(#filter0_d_1_317)">
<path fill-rule="evenodd" clip-rule="evenodd" d="M13.8026 23.4762C16.1171 16.7906 22.1075 11.8788 29.3233 11.8788H51.5151L42.3934 51.5828L41.4403 55.4031C39.1258 61.6793 33.4077 66.1818 26.6003 66.1818H4L13.258 25.3863L13.6664 23.8855C13.6664 23.8173 13.7005 23.7491 13.7345 23.6808C13.7685 23.6126 13.8026 23.5444 13.8026 23.4762ZM25.512 25.4546H25.1061C23.4822 25.4546 22.1291 26.0031 20.7759 27.1001C19.4227 28.1971 18.6108 29.4313 18.3401 30.5283L13.3334 52.6061H13.604C15.2278 52.6061 16.7163 52.0576 18.0695 50.9605C19.4227 49.8635 20.3699 48.4922 20.6406 46.8467L21.7231 42.0471H31.7367C33.3605 42.0471 34.849 41.4986 36.2022 40.4016C37.5554 39.3046 38.3673 37.9333 38.7733 36.2877V36.0135H23.0763L24.1589 31.4882H37.6907C39.3146 31.4882 40.6677 30.9397 42.0209 29.8427C43.3741 28.7456 44.1861 27.3744 44.592 25.7288L44.7273 25.4546H25.512Z" fill="white"/>
<path fill-rule="evenodd" clip-rule="evenodd" d="M56.0128 11.8315C57.9366 5.03178 64.2577 0 71.6782 0H93.9394L78.5489 65.8211C76.7625 72.8928 70.4414 78.0606 62.7462 78.0606H40.4849L55.6005 13.3274C55.7379 12.9196 55.8752 12.376 56.0126 11.8323L56.0128 11.8315ZM77.4951 25.4546C78.8319 25.4546 80.035 26.0003 80.8371 26.819C81.6391 27.774 82.1738 28.8655 82.0401 30.0935C82.0401 30.5028 82.0401 30.9121 81.9065 31.3215L80.7034 36.3697C80.3023 38.007 79.3666 39.7807 78.0298 40.8722C76.693 41.9638 75.3562 42.1002 73.7521 42.1002H60.6517L59.5823 46.8756C59.3149 48.5129 58.3791 49.8773 57.0424 50.9688C55.7056 52.0603 54.2352 52.6061 52.631 52.6061H52.3636L58.5128 25.4546H77.4951ZM62.1222 36.0969H74.9552L76.0246 31.5943H63.1916L62.1222 36.0969Z" fill="white"/>
<path fill-rule="evenodd" clip-rule="evenodd" d="M93.1494 22.794C95.6071 16.3813 101.478 11.8788 108.442 11.8788H130.424L120.867 53.3565C119.092 60.7242 112.674 66.1818 105.028 66.1818H82.9091L92.6033 24.4313C92.6033 24.4313 93.0129 23.0669 93.1494 22.794ZM116.524 25.4546C117.86 25.4546 119.062 26.0003 119.864 26.819C120.799 27.6376 121.199 28.7291 121.066 30.0935V30.0938C121.066 30.503 121.066 30.9122 120.932 31.3215V31.4579H111.046L107.573 46.8756C107.306 48.5129 106.371 49.8773 105.035 50.9688C103.699 52.0603 102.229 52.6061 100.626 52.6061H100.359L105.168 31.4579H101.027C99.691 31.4579 98.4887 30.9121 97.6872 30.0935C96.8856 29.2749 96.4848 28.1833 96.4848 26.819C96.4848 26.4096 96.4848 26.0003 96.6184 25.591V25.4546H107.707H108.241H116.524Z" fill="white"/>
<path d="M124.485 61.5152C124.485 58.9073 126.544 56.8485 129.151 56.8485C131.759 56.8485 133.818 58.9073 133.818 61.5152C133.818 64.123 131.759 66.1818 129.151 66.1818C126.544 66.1818 124.485 64.123 124.485 61.5152ZM132.72 61.5152C132.72 59.3191 131.073 57.672 129.151 57.672C127.23 57.672 125.583 59.3191 125.583 61.5152C125.583 63.7112 127.23 65.3583 129.151 65.3583C131.073 65.3583 132.72 63.7112 132.72 61.5152ZM127.367 58.7701H129.289C130.524 58.7701 131.21 59.1818 131.21 60.2799C131.21 61.2407 130.661 61.6524 129.838 61.6524L131.21 63.9858H130.25L128.877 61.6524H128.328V63.9858H127.367V58.7701ZM128.328 61.1034H129.151C129.7 61.1034 130.25 60.9661 130.25 60.2799C130.25 59.5936 129.7 59.5936 129.151 59.5936H128.328V61.1034Z" fill="white"/>
<path d="M144 52.6061V31.3939H155.03V34.1668H147.268V40.4056H154.349V43.1784H147.268V49.8332H155.03V52.6061H144Z" fill="white"/>
<path d="M169.455 51.5152C168.115 52.197 166.373 52.6061 164.23 52.6061C161.818 52.6061 160.077 51.9242 158.737 50.4242C157.397 49.0606 156.727 47.0152 156.727 44.5606C156.727 42.1061 157.397 40.197 158.603 38.697C159.809 37.197 161.684 36.3788 163.962 36.3788C164.9 36.3788 165.703 36.5152 166.373 36.7879V29.697H169.455V51.5152ZM166.373 39.3788C165.837 39.1061 165.167 38.9697 164.23 38.9697C162.89 38.9697 161.818 39.5152 161.014 40.6061C160.345 41.5606 159.943 42.9242 159.943 44.697C159.943 46.4697 160.345 47.697 161.014 48.6515C161.818 49.6061 162.756 50.1515 164.23 50.1515C165.167 50.1515 165.971 50.0152 166.373 49.7424V39.3788Z" fill="white"/>
<path d="M184.727 51.5528C183.154 52.2111 181.152 52.6061 178.578 52.6061C174.145 52.6061 172 50.7628 172 47.2079V37.3333H175.289V47.3396C175.289 49.1829 176.433 50.2362 178.578 50.2362C179.865 50.2362 180.866 50.1045 181.438 49.8412V37.465H184.727V51.5528Z" fill="white"/>
<path d="M197.455 51.5131C196.352 52.1962 194.973 52.6061 193.456 52.6061C191.526 52.6061 190.009 51.923 188.63 50.6934C187.252 49.1905 186.424 47.1412 186.424 44.5455C186.424 41.9497 187.114 39.9004 188.63 38.3975C189.871 37.1679 191.526 36.4848 193.456 36.4848C195.111 36.4848 196.352 36.8947 197.455 37.5778L196.352 39.9004C195.662 39.3539 194.835 39.0806 193.732 39.0806C192.629 39.0806 191.664 39.4905 190.974 40.4468C190.147 41.4032 189.733 42.7694 189.733 44.6821C189.733 46.4581 190.147 47.8243 190.974 48.7807C191.664 49.737 192.629 50.1469 193.732 50.1469C194.697 50.1469 195.662 49.8736 196.352 49.3272L197.455 51.5131Z" fill="white"/>
<path d="M211.03 51.5131C209.616 52.1962 207.636 52.6061 205.232 52.6061C200.566 52.6061 198.303 50.9666 198.303 47.6877C198.303 45.775 199.293 44.2722 201.273 43.4525C202.687 42.7694 204.95 42.4961 207.919 42.3595V41.4032C207.919 39.6271 206.788 38.8074 204.525 38.8074C202.97 38.8074 201.414 39.0806 200 39.7637L199.152 37.5778C200.849 36.8947 202.687 36.4848 204.808 36.4848C208.909 36.4848 211.03 38.2609 211.03 41.813V51.5131ZM207.919 44.5455C205.798 44.6821 204.242 44.8187 203.394 45.2286C201.98 45.775 201.273 46.5948 201.273 47.8243C201.273 49.6004 202.545 50.4201 205.091 50.4201C206.364 50.4201 207.212 50.2835 207.919 50.0103V44.5455Z" fill="white"/>
<path d="M221.073 52.1933C220.517 52.4685 219.96 52.6061 219.126 52.6061C216.205 52.6061 214.814 51.0926 214.814 48.0655V39.122H212.727V36.783H214.814V33.2056L218.013 32.2424V36.783H221.212V39.122H218.013V47.9279C218.013 49.3039 218.708 49.8542 220.099 49.8542C220.517 49.8542 220.934 49.8542 221.212 49.7166V52.1933H221.073Z" fill="white"/>
<path d="M225.697 33.56C225.242 33.971 224.788 34.108 224.182 34.108C223.576 34.108 223.121 33.971 222.667 33.56C222.212 33.1489 222.061 32.7378 222.061 32.3267C222.061 31.9157 222.212 31.3676 222.667 31.0935C223.121 30.6825 223.576 30.5455 224.182 30.5455C224.788 30.5455 225.242 30.6825 225.697 31.0935C226.151 31.5046 226.303 31.9157 226.303 32.3267C226.303 32.7378 226.151 33.2859 225.697 33.56ZM222.515 36.9855H226V52.6061H222.515V36.9855Z" fill="white"/>
<path d="M239.811 50.2835C238.589 51.7863 236.96 52.6061 234.788 52.6061C232.616 52.6061 230.987 51.7863 229.765 50.2835C228.543 48.7807 228 46.868 228 44.5455C228 42.0863 228.543 40.1736 229.765 38.8074C230.987 37.3046 232.616 36.4848 234.788 36.4848C236.96 36.4848 238.589 37.3046 239.811 38.8074C241.033 40.3102 241.576 42.2229 241.576 44.5455C241.576 46.868 241.033 48.9173 239.811 50.2835ZM237.503 40.4468C236.824 39.4905 236.01 38.944 234.788 38.944C233.566 38.944 232.752 39.4905 232.073 40.4468C231.394 41.4032 231.122 42.7694 231.122 44.5455C231.122 46.3215 231.394 47.5511 232.073 48.6441C232.752 49.6004 233.566 50.1469 234.788 50.1469C236.01 50.1469 236.824 49.6004 237.503 48.6441C238.182 47.6877 238.453 46.3215 238.453 44.5455C238.453 42.7694 238.182 41.4032 237.503 40.4468Z" fill="white"/>
<path d="M252.998 52.6061V42.0439C252.998 40.0982 251.953 38.9864 249.865 38.9864C248.821 38.9864 247.907 39.1254 247.124 39.4033V52.4671H244.121V37.5967C245.818 36.9018 247.776 36.4848 249.865 36.4848C254.042 36.4848 256 38.2915 256 41.7659V52.6061H252.998V52.6061Z" fill="white"/>
</g>
<defs>
<filter id="filter0_d_1_317" x="0" y="0" width="260" height="86.0606" filterUnits="userSpaceOnUse" color-interpolation-filters="sRGB">
<feFlood flood-opacity="0" result="BackgroundImageFix"/>
<feColorMatrix in="SourceAlpha" type="matrix" values="0 0 0 0 0 0 0 0 0 0 0 0 0 0 0 0 0 0 127 0" result="hardAlpha"/>
<feOffset dy="4"/>
<feGaussianBlur stdDeviation="2"/>
<feComposite in2="hardAlpha" operator="out"/>
<feColorMatrix type="matrix" values="0 0 0 0 0 0 0 0 0 0 0 0 0 0 0 0 0 0 0.25 0"/>
<feBlend mode="normal" in2="BackgroundImageFix" result="effect1_dropShadow_1_317"/>
<feBlend mode="normal" in="SourceGraphic" in2="effect1_dropShadow_1_317" result="shape"/>
</filter>
</defs>
</svg>
