<svg width="192" height="38" viewBox="0 0 192 38" fill="none" xmlns="http://www.w3.org/2000/svg">
<path d="M60.6074 25.7453C60.6074 26.0631 60.3247 26.3457 60.0066 26.3457H0.600773C0.282717 26.3457 0 26.0985 0 25.7453V20.907C0 20.5892 0.247377 20.3066 0.600773 20.3066H60.042C60.36 20.3066 60.6427 20.5539 60.6427 20.907V25.7453H60.6074Z" fill="#FAAE2D"/>
<path d="M60.6426 20.6245C60.6426 21.013 60.3246 21.3308 59.9358 21.3308H0.742009C0.353274 21.3308 0.0352173 21.013 0.0352173 20.6245V1.51858C0.0352173 1.1301 0.353274 0.812256 0.742009 0.812256H59.9712C60.3599 0.812256 60.678 1.1301 60.678 1.51858V20.6245H60.6426Z" fill="#231F20"/>
<path d="M58.2043 19.9183H2.47376C2.04968 19.9183 1.73163 19.5652 1.73163 19.1767V2.93133C1.73163 2.50754 2.08502 2.1897 2.47376 2.1897H58.2043C58.6284 2.1897 58.9464 2.54286 58.9464 2.93133V19.1767C58.9818 19.6005 58.6284 19.9183 58.2043 19.9183ZM2.47376 2.26033C2.12036 2.26033 1.83765 2.54286 1.83765 2.89602V19.1414C1.83765 19.4945 2.12036 19.7771 2.47376 19.7771H58.2043C58.5577 19.7771 58.8404 19.4945 58.8404 19.1414V2.89602C58.8404 2.54286 58.5577 2.26033 58.2043 2.26033H2.47376V2.26033Z" fill="#D0D1D2"/>
<path d="M13.8531 12.8196C13.8531 13.1728 13.5704 13.4553 13.217 13.4553H4.41742C4.06403 13.4553 3.78131 13.1728 3.78131 12.8196V4.69697C3.78131 4.34381 4.06403 4.06128 4.41742 4.06128H13.217C13.5704 4.06128 13.8531 4.34381 13.8531 4.69697V12.8196V12.8196Z" fill="#FAAE2D"/>
<path d="M7.84542 9.14685C7.59804 9.21748 7.24465 9.28811 6.92659 9.28811C5.23029 9.28811 4.59418 8.05205 4.59418 7.02789C4.59418 6.07435 5.26563 4.80298 6.96193 4.80298C8.34017 4.80298 9.29434 5.65056 9.29434 6.99257C9.29434 8.01673 8.65823 8.65242 8.30483 8.86432L9.47104 9.46469C10.6726 10.1004 11.4501 10.1357 11.8388 10.1357C12.1215 10.1357 12.5456 10.1004 12.9697 9.9238C13.005 9.9238 13.0403 9.88848 13.0403 9.88848C13.0757 9.88848 13.0757 9.9238 13.0757 9.9238C13.0757 9.95911 13.0403 9.95911 13.005 9.99443C12.6516 10.171 12.0155 10.4182 11.1673 10.4182C10.2839 10.4182 9.68308 10.2063 8.72891 9.64127L7.84542 9.14685ZM8.48153 7.13383C8.48153 5.75651 7.63338 5.08551 6.82057 5.08551C6.07844 5.08551 5.40699 5.57993 5.40699 6.88662C5.40699 8.26395 6.2198 9.00558 7.17397 9.00558C7.63338 9.0409 8.48153 8.829 8.48153 7.13383Z" fill="white"/>
<path d="M10.2838 9.14692C10.1778 9.1116 10.1778 9.07629 10.1778 8.93502C10.1778 8.61718 10.2131 8.26402 10.2131 8.19339C10.2131 8.12276 10.2485 8.05212 10.2838 8.05212C10.3192 8.05212 10.3545 8.08744 10.3545 8.15807C10.3545 8.2287 10.3898 8.36997 10.3898 8.4406C10.5312 8.86439 10.8492 9.00566 11.2026 9.00566C11.7327 9.00566 11.9801 8.6525 11.9801 8.33465C11.9801 8.05212 11.9094 7.7696 11.4147 7.41644L11.1673 7.20454C10.5312 6.71012 10.3192 6.32164 10.3192 5.82722C10.3192 5.19153 10.8492 4.73242 11.6621 4.73242C12.0508 4.73242 12.2628 4.80305 12.4395 4.83837C12.4749 4.83837 12.5102 4.87369 12.5102 4.909C12.5102 4.97963 12.4749 5.15621 12.4749 5.61532C12.4749 5.75659 12.4749 5.7919 12.4042 5.7919C12.3689 5.7919 12.3335 5.75659 12.3335 5.68595C12.3335 5.65064 12.2982 5.43874 12.1922 5.29748C12.1215 5.19153 11.9448 5.01495 11.556 5.01495C11.132 5.01495 10.8846 5.26216 10.8846 5.61532C10.8846 5.86253 11.0259 6.07443 11.4854 6.42759L11.6621 6.53354C12.3335 7.06328 12.6162 7.45175 12.6162 7.98149C12.6162 8.29934 12.4749 8.72313 12.0861 8.97034C11.8034 9.14692 11.4854 9.21755 11.1673 9.21755C10.7786 9.3235 10.5312 9.28818 10.2838 9.14692Z" fill="white"/>
<path d="M13.0403 12.4311C13.0403 12.5371 11.1673 12.643 8.87027 12.643C6.57319 12.643 4.7002 12.5371 4.7002 12.4311C4.7002 12.3252 6.57319 12.2192 8.87027 12.2192C11.1673 12.2192 13.0403 12.3252 13.0403 12.4311Z" fill="#808184"/>
<path d="M4.38209 17.1284V18.1878L4.80616 18.2585V18.3644H3.63995V18.2585L3.95801 18.1878V15.751L3.60461 15.6804V15.5745H4.80616C5.0182 15.5745 5.15956 15.5745 5.30091 15.6098C5.44227 15.6451 5.54829 15.6804 5.61897 15.751C5.68965 15.8217 5.76033 15.8923 5.79567 15.9983C5.83101 16.1042 5.83101 16.2102 5.83101 16.3161C5.83101 16.422 5.83101 16.528 5.79567 16.5986C5.76033 16.6693 5.72499 16.7399 5.65431 16.8105C5.61897 16.8812 5.54829 16.9165 5.47761 16.9871C5.40693 17.0224 5.33625 17.0577 5.26558 17.0931L6.00771 18.2232L6.32576 18.2938V18.3644H5.65431L4.87684 17.1284H4.38209ZM5.44227 16.3514C5.44227 16.2455 5.44227 16.1395 5.40693 16.0689C5.37159 15.9983 5.33625 15.9276 5.26558 15.8923C5.1949 15.857 5.12422 15.8217 5.05354 15.7864C4.98286 15.751 4.87684 15.751 4.73548 15.751H4.38209V16.9518H4.73548C4.87684 16.9518 4.98286 16.9518 5.05354 16.9165C5.12422 16.8812 5.1949 16.8458 5.26558 16.8105C5.33625 16.7752 5.37159 16.7046 5.37159 16.6339C5.44227 16.528 5.44227 16.4574 5.44227 16.3514Z" fill="white"/>
<path d="M7.42133 18.2584V18.3643H6.5025V18.2584L6.82056 18.1878L7.77473 15.5391H8.16346L9.15297 18.1878L9.50637 18.2584V18.3643H8.34016V18.2584L8.7289 18.1878L8.44618 17.3755H7.35065L7.06794 18.1878L7.42133 18.2584ZM7.88075 15.8569L7.38599 17.1989H8.34016L7.88075 15.8569Z" fill="white"/>
<path d="M9.85974 18.3643V18.2584L10.3192 18.1878V15.751H10.2131C10.0364 15.751 9.89508 15.751 9.75373 15.751C9.64771 15.751 9.54169 15.7863 9.50635 15.7863L9.43567 16.2101H9.29431V15.5391H11.7327V16.2101H11.5914L11.5207 15.7863C11.4854 15.7863 11.45 15.7863 11.4147 15.7863C11.3793 15.7863 11.3087 15.7863 11.238 15.7863C11.1673 15.7863 11.0966 15.7863 11.026 15.7863C10.9553 15.7863 10.8846 15.7863 10.7786 15.7863H10.6726V18.2231L11.132 18.2937V18.3643H9.85974Z" fill="white"/>
<path d="M12.0154 18.2585L12.3688 18.1878V15.751L12.0154 15.6804V15.5745H14.1358V16.2455H13.9945L13.9238 15.7864C13.8884 15.7864 13.8178 15.7864 13.7471 15.7864C13.6764 15.7864 13.6057 15.7864 13.5704 15.7864C13.4997 15.7864 13.429 15.7864 13.3937 15.7864C13.323 15.7864 13.2877 15.7864 13.2523 15.7864H12.7929V16.8812H13.535L13.6057 16.5633H13.7471V17.4109H13.6057L13.535 17.0577H12.7929V18.1878H13.3583C13.429 18.1878 13.535 18.1878 13.6057 18.1878C13.6764 18.1878 13.7471 18.1878 13.8178 18.1878C13.8884 18.1878 13.9238 18.1878 13.9591 18.1878C13.9945 18.1878 14.0298 18.1878 14.0651 18.1878L14.1712 17.6581H14.3125L14.2418 18.3644H12.0154V18.2585Z" fill="white"/>
<path d="M16.0089 15.5745C16.2562 15.5745 16.4329 15.6098 16.645 15.6451C16.8217 15.6804 16.9984 15.7864 17.1044 15.8923C17.2457 15.9983 17.3518 16.1395 17.4224 16.3161C17.4931 16.4927 17.5285 16.7046 17.5285 16.9518C17.5285 17.1637 17.4931 17.3756 17.4578 17.5522C17.3871 17.7287 17.3164 17.87 17.2104 18.0113C17.1044 18.1172 16.9277 18.2232 16.751 18.2938C16.5743 18.3644 16.3623 18.3997 16.1149 18.3997C16.0442 18.3997 15.9382 18.3997 15.8675 18.3997C15.7615 18.3997 15.6908 18.3997 15.5848 18.3997C15.4788 18.3997 15.4081 18.3997 15.3374 18.3997C15.2667 18.3997 15.196 18.3997 15.1254 18.3997H14.772V18.2938L15.1254 18.2232V15.7864L14.772 15.7157V15.6098H16.0089V15.5745ZM17.1044 16.9518C17.1044 16.7399 17.069 16.5633 17.0337 16.422C16.963 16.2808 16.8923 16.1395 16.7863 16.0689C16.6803 15.9629 16.539 15.8923 16.3976 15.857C16.2562 15.8217 16.0795 15.7864 15.9028 15.7864H15.5141V18.1878C15.5494 18.1878 15.5848 18.1878 15.6555 18.1878C15.6908 18.1878 15.7615 18.1878 15.7968 18.1878C15.8322 18.1878 15.9028 18.1878 15.9382 18.1878H16.0795C16.2562 18.1878 16.3976 18.1525 16.539 18.1172C16.6803 18.0819 16.751 17.976 16.857 17.87C16.9277 17.7641 16.9984 17.6228 17.0337 17.4815C17.069 17.3403 17.1044 17.1637 17.1044 16.9518Z" fill="white"/>
<path d="M19.8962 17.0931V18.1878L20.3556 18.2585V18.3644H19.1541V18.2585L19.4721 18.1878V15.751L19.1187 15.6804V15.5745H21.2037V16.2455H21.0624L20.9917 15.7864C20.9564 15.7864 20.8857 15.7864 20.815 15.7864C20.7443 15.7864 20.6737 15.7864 20.6383 15.7864C20.5676 15.7864 20.497 15.7864 20.4616 15.7864C20.3909 15.7864 20.3556 15.7864 20.3203 15.7864H19.8608V16.9518H20.6737L20.7443 16.6339H20.8857V17.4815H20.7443L20.6737 17.1284H19.8962V17.0931Z" fill="white"/>
<path d="M21.6631 16.9517C21.6631 16.7045 21.6985 16.4926 21.7692 16.316C21.8398 16.1394 21.9105 15.9982 22.0165 15.8569C22.1226 15.751 22.2639 15.645 22.4406 15.6097C22.6173 15.5391 22.794 15.5391 23.0061 15.5391C23.2181 15.5391 23.3948 15.5744 23.5715 15.6097C23.7482 15.6803 23.8895 15.751 23.9956 15.8569C24.1016 15.9629 24.2076 16.1041 24.2783 16.316C24.349 16.4926 24.3843 16.7045 24.3843 16.9517C24.3843 17.1989 24.349 17.4108 24.2783 17.5874C24.2076 17.764 24.1369 17.9052 23.9956 18.0465C23.8542 18.1878 23.7482 18.2584 23.5715 18.2937C23.3948 18.3643 23.2181 18.3643 23.0061 18.3643C22.794 18.3643 22.6173 18.329 22.4406 18.2937C22.2639 18.2231 22.1226 18.1524 22.0165 18.0465C21.9105 17.9405 21.8045 17.764 21.7338 17.5874C21.6985 17.4108 21.6631 17.1989 21.6631 16.9517ZM22.0872 16.9517C22.0872 17.1636 22.0872 17.3049 22.1226 17.4814C22.1579 17.6227 22.1932 17.764 22.2639 17.8699C22.3346 17.9759 22.4406 18.0818 22.5466 18.1171C22.6527 18.1878 22.8294 18.2231 23.0061 18.2231C23.1827 18.2231 23.3241 18.1878 23.4655 18.1171C23.5715 18.0465 23.6775 17.9759 23.7482 17.8699C23.8189 17.764 23.8542 17.6227 23.8895 17.4814C23.9249 17.3402 23.9249 17.1636 23.9249 16.9517C23.9249 16.7751 23.9249 16.5985 23.8895 16.422C23.8542 16.2807 23.8189 16.1394 23.7482 16.0335C23.6775 15.9275 23.5715 15.8569 23.4655 15.7863C23.3594 15.7156 23.1827 15.7156 23.0061 15.7156C22.8294 15.7156 22.688 15.751 22.5466 15.7863C22.4406 15.8569 22.3346 15.9275 22.2639 16.0335C22.1932 16.1394 22.1579 16.2807 22.1226 16.422C22.1226 16.5985 22.0872 16.7751 22.0872 16.9517Z" fill="white"/>
<path d="M25.5505 17.1284V18.1878L25.9746 18.2585V18.3644H24.8084V18.2585L25.1265 18.1878V15.751L24.7731 15.6804V15.5745H25.9746C26.1867 15.5745 26.328 15.5745 26.4694 15.6098C26.6107 15.6451 26.7167 15.6804 26.7874 15.751C26.8581 15.8217 26.9288 15.8923 26.9641 15.9983C26.9995 16.1042 26.9995 16.2102 26.9995 16.3161C26.9995 16.422 26.9995 16.528 26.9641 16.5986C26.9288 16.6693 26.8934 16.7399 26.8228 16.8105C26.7874 16.8812 26.7167 16.9165 26.6461 16.9871C26.5754 17.0224 26.5047 17.0577 26.434 17.0931L27.1762 18.2232L27.4942 18.2938V18.3644H26.8581L26.0806 17.1284H25.5505ZM26.6107 16.3514C26.6107 16.2455 26.6107 16.1395 26.5754 16.0689C26.54 15.9983 26.5047 15.9276 26.434 15.8923C26.3634 15.857 26.2927 15.8217 26.222 15.7864C26.1513 15.751 26.0453 15.751 25.9039 15.751H25.5505V16.9518H25.9039C26.0453 16.9518 26.1513 16.9518 26.222 16.9165C26.2927 16.8812 26.3987 16.8458 26.434 16.8105C26.5047 16.7752 26.5401 16.7046 26.5401 16.6339C26.6107 16.528 26.6107 16.4574 26.6107 16.3514Z" fill="white"/>
<path d="M28.9431 18.2585L29.2965 18.1878V15.751L28.9431 15.6804V15.5745H31.0282V16.2455H30.8868L30.8161 15.7864C30.7808 15.7864 30.7101 15.7864 30.6394 15.7864C30.5687 15.7864 30.4981 15.7864 30.4627 15.7864C30.392 15.7864 30.3214 15.7864 30.286 15.7864C30.2153 15.7864 30.18 15.7864 30.1447 15.7864H29.6852V16.8812H30.4274L30.4981 16.5633H30.6394V17.4109H30.4981L30.4274 17.0577H29.6852V18.1878H30.2507C30.3214 18.1878 30.4274 18.1878 30.4981 18.1878C30.5687 18.1878 30.6394 18.1878 30.7101 18.1878C30.7808 18.1878 30.8161 18.1878 30.8515 18.1878C30.8868 18.1878 30.9221 18.1878 30.9575 18.1878L31.0635 17.6581H31.2048L31.1695 18.3644H28.9431V18.2585Z" fill="white"/>
<path d="M32.1943 18.1878L32.5477 18.2585V18.3644H31.6289V18.2585L31.947 18.1878L32.9011 16.9165L32.0883 15.7157L31.7703 15.6804V15.5745H32.9011V15.6804L32.5477 15.7157L33.1485 16.5986L33.7846 15.7157L33.4312 15.6804V15.5745H34.3501V15.6804L34.032 15.7157L33.2545 16.7752L34.2087 18.1878L34.5267 18.2585V18.3644H33.3959V18.2585L33.7493 18.1878L33.0071 17.0931L32.1943 18.1878Z" fill="white"/>
<path d="M36.3291 18.3997C36.1171 18.3997 35.905 18.3643 35.7283 18.2937C35.5516 18.2231 35.4103 18.1524 35.2689 18.0112C35.1629 17.9052 35.0569 17.7287 34.9862 17.5874C34.9155 17.4108 34.8802 17.2342 34.8802 16.987C34.8802 16.7398 34.9155 16.5279 34.9862 16.3513C35.0569 16.1748 35.1276 16.0335 35.2689 15.8922C35.3749 15.7863 35.5516 15.6803 35.7283 15.6097C35.905 15.5391 36.1171 15.5391 36.3291 15.5391C36.4351 15.5391 36.5058 15.5391 36.6118 15.5391C36.6825 15.5391 36.7885 15.5391 36.8592 15.5744C36.9299 15.5744 37.0006 15.6097 37.0712 15.6097C37.1419 15.6097 37.2126 15.645 37.2833 15.645V16.2454H37.1419L37.0712 15.8922C36.9652 15.8216 36.8592 15.7863 36.7179 15.751C36.5765 15.7156 36.4705 15.7156 36.3291 15.7156C36.1524 15.7156 36.0111 15.751 35.905 15.7863C35.7637 15.8216 35.6577 15.8922 35.587 15.9982C35.5163 16.1041 35.4456 16.2454 35.3749 16.3866C35.3396 16.5632 35.3043 16.7398 35.3043 16.987C35.3043 17.1989 35.3396 17.3755 35.3749 17.5521C35.4103 17.6933 35.481 17.8346 35.587 17.9406C35.6577 18.0465 35.7637 18.1171 35.905 18.1878C36.0111 18.2231 36.1524 18.2584 36.3291 18.2584C36.3998 18.2584 36.5058 18.2584 36.5765 18.2584C36.6472 18.2584 36.7178 18.2231 36.7885 18.2231C36.8592 18.1878 36.9299 18.1878 36.9652 18.1524C37.0006 18.1171 37.0712 18.1171 37.1066 18.0818L37.1773 17.658H37.3186V18.329C37.2479 18.329 37.1773 18.3643 37.1066 18.3643C37.0359 18.3643 36.9652 18.3997 36.8592 18.3997C36.7885 18.3997 36.6825 18.435 36.5765 18.435C36.5412 18.3997 36.4351 18.3997 36.3291 18.3997Z" fill="white"/>
<path d="M37.8134 18.2585L38.1668 18.1878V15.751L37.8134 15.6804V15.5745H39.8984V16.2455H39.757L39.6864 15.7864C39.651 15.7864 39.5803 15.7864 39.5097 15.7864C39.439 15.7864 39.3683 15.7864 39.333 15.7864C39.2623 15.7864 39.1916 15.7864 39.1563 15.7864C39.0856 15.7864 39.0502 15.7864 39.0149 15.7864H38.5555V16.8812H39.2976L39.3683 16.5633H39.5097V17.4109H39.3683L39.2976 17.0577H38.5555V18.1878H39.0856C39.1563 18.1878 39.2623 18.1878 39.333 18.1878C39.4036 18.1878 39.4743 18.1878 39.545 18.1878C39.6157 18.1878 39.651 18.1878 39.6864 18.1878C39.7217 18.1878 39.757 18.1878 39.7924 18.1878L39.8984 17.6581H40.0398L40.0044 18.3997H37.8134V18.2585Z" fill="white"/>
<path d="M41.736 15.6803L41.312 15.7509V18.1877H41.8774C42.0541 18.1877 42.1954 18.1877 42.3015 18.1877C42.4075 18.1877 42.4782 18.1877 42.5135 18.1524L42.6549 17.5873H42.7962L42.7609 18.3996H40.5698V18.2936L40.9232 18.223V15.7862L40.5698 15.7156V15.6096H41.7714V15.6803H41.736Z" fill="white"/>
<path d="M44.4219 15.6803L43.9978 15.7509V18.1877H44.5632C44.7399 18.1877 44.8813 18.1877 44.9873 18.1877C45.0933 18.1877 45.164 18.1877 45.1993 18.1524L45.3407 17.5873H45.4821L45.4467 18.3996H43.2557V18.2936L43.6091 18.223V15.7862L43.2557 15.7156V15.6096H44.4572V15.6803H44.4219Z" fill="white"/>
<path d="M45.9768 18.2585L46.3302 18.1878V15.751L45.9768 15.6804V15.5745H48.0618V16.2455H47.9205L47.8498 15.7864C47.8145 15.7864 47.7438 15.7864 47.6731 15.7864C47.6024 15.7864 47.5317 15.7864 47.4964 15.7864C47.4257 15.7864 47.355 15.7864 47.3197 15.7864C47.249 15.7864 47.2137 15.7864 47.1784 15.7864H46.7189V16.8812H47.4611L47.5317 16.5633H47.6731V17.4109H47.5317L47.4611 17.0577H46.7189V18.1878H47.2844C47.3551 18.1878 47.4611 18.1878 47.5317 18.1878C47.6024 18.1878 47.6731 18.1878 47.7438 18.1878C47.8145 18.1878 47.8498 18.1878 47.8851 18.1878C47.9205 18.1878 47.9558 18.1878 47.9912 18.1878L48.0972 17.6581H48.2385L48.2032 18.3997H45.9768V18.2585Z" fill="white"/>
<path d="M50.9597 15.7157L50.6063 15.6804V15.5745H51.5251V15.6804L51.1717 15.7157V18.3644H50.995L49.2634 15.857V18.1878L49.6521 18.2585V18.3644H48.6979V18.2585L49.0513 18.1878V15.7157L48.6979 15.6804V15.5745H49.5461L50.9597 17.6228V15.7157Z" fill="white"/>
<path d="M53.3627 18.3997C53.1507 18.3997 52.9387 18.3643 52.762 18.2937C52.5853 18.2231 52.4439 18.1524 52.3026 18.0112C52.1612 17.9052 52.0905 17.7287 52.0198 17.5874C51.9492 17.4108 51.9138 17.2342 51.9138 16.987C51.9138 16.7398 51.9492 16.5279 52.0198 16.3513C52.0905 16.1748 52.1612 16.0335 52.3026 15.8922C52.4086 15.7863 52.5853 15.6803 52.762 15.6097C52.9387 15.5391 53.1507 15.5391 53.3627 15.5391C53.4688 15.5391 53.5394 15.5391 53.6455 15.5391C53.7161 15.5391 53.8222 15.5391 53.8928 15.5744C53.9635 15.5744 54.0342 15.6097 54.1049 15.6097C54.1756 15.6097 54.2462 15.645 54.3169 15.645V16.2454H54.1756L54.1049 15.8922C53.9989 15.8216 53.8928 15.7863 53.7515 15.751C53.6101 15.7156 53.5041 15.7156 53.3627 15.7156C53.186 15.7156 53.0447 15.751 52.9387 15.7863C52.7973 15.8216 52.6913 15.8922 52.6206 15.9982C52.5499 16.1041 52.4793 16.2454 52.4086 16.3866C52.3732 16.5632 52.3379 16.7398 52.3379 16.987C52.3379 17.1989 52.3732 17.3755 52.4086 17.5521C52.4439 17.6933 52.5146 17.8346 52.6206 17.9406C52.6913 18.0465 52.7973 18.1171 52.9387 18.1878C53.0447 18.2231 53.186 18.2584 53.3627 18.2584C53.4334 18.2584 53.5394 18.2584 53.6101 18.2584C53.6808 18.2584 53.7515 18.2231 53.8222 18.2231C53.8928 18.1878 53.9635 18.1878 53.9989 18.1524C54.0342 18.1171 54.1049 18.1171 54.1402 18.0818L54.2109 17.658H54.3523V18.329C54.2816 18.329 54.2109 18.3643 54.1402 18.3643C54.0695 18.3643 53.9989 18.3997 53.8928 18.3997C53.8222 18.3997 53.7161 18.435 53.6101 18.435C53.5394 18.3997 53.4688 18.3997 53.3627 18.3997Z" fill="white"/>
<path d="M54.847 18.2585L55.2004 18.1878V15.751L54.847 15.6804V15.5745H56.9321V16.2455H56.7907L56.72 15.7864C56.6847 15.7864 56.614 15.7864 56.5433 15.7864C56.4727 15.7864 56.402 15.7864 56.3666 15.7864C56.296 15.7864 56.2253 15.7864 56.19 15.7864C56.1193 15.7864 56.0839 15.7864 56.0486 15.7864H55.5892V16.8812H56.3313L56.402 16.5633H56.5433V17.4109H56.402L56.3313 17.0577H55.5892V18.1878H56.1546C56.2253 18.1878 56.3313 18.1878 56.402 18.1878C56.4727 18.1878 56.5433 18.1878 56.614 18.1878C56.6847 18.1878 56.72 18.1878 56.7554 18.1878C56.7907 18.1878 56.8261 18.1878 56.8614 18.1878L56.9674 17.6581H57.1088L57.0734 18.3997H54.847V18.2585Z" fill="white"/>
<path d="M17.1044 10.8066H17.5284L17.7758 12.0074C17.8465 12.1133 17.9879 12.2193 18.1292 12.3252C18.2706 12.4312 18.4473 12.5018 18.624 12.5724C18.8007 12.6431 19.0127 12.7137 19.2247 12.749C19.4368 12.7843 19.6135 12.8197 19.8255 12.8197C20.1789 12.8197 20.4616 12.7843 20.709 12.6784C20.9564 12.5724 21.1684 12.4665 21.3098 12.2899C21.4865 12.1133 21.5925 11.9368 21.6632 11.7249C21.7339 11.513 21.7692 11.2658 21.7692 11.0185C21.7692 10.7007 21.6985 10.4182 21.5572 10.2416C21.4158 10.0297 21.2391 9.85311 21.0271 9.71185C20.815 9.57058 20.5676 9.42932 20.2849 9.35869C20.0022 9.25274 19.7195 9.14679 19.4368 9.04084C19.1541 8.9349 18.836 8.82895 18.5533 8.68768C18.2706 8.54642 18.0232 8.40515 17.8112 8.22857C17.5991 8.05199 17.4224 7.80478 17.2811 7.52226C17.1397 7.23973 17.069 6.88657 17.069 6.46278C17.069 6.10962 17.1397 5.79177 17.2811 5.50924C17.4224 5.22672 17.5991 4.9795 17.8818 4.80292C18.1292 4.59103 18.4473 4.44976 18.836 4.34382C19.2247 4.23787 19.6488 4.16724 20.1082 4.16724C20.5323 4.16724 20.9564 4.20255 21.3805 4.23787C21.7692 4.3085 22.1579 4.37913 22.476 4.44976V6.32151H22.0519L21.8045 5.22672C21.5925 5.08545 21.3805 4.9795 21.0977 4.87356C20.815 4.76761 20.497 4.73229 20.1436 4.73229C19.8255 4.73229 19.5428 4.76761 19.2954 4.83824C19.048 4.90887 18.8713 5.01482 18.6947 5.12077C18.5533 5.22672 18.4119 5.4033 18.3413 5.54456C18.2706 5.72114 18.2352 5.89772 18.2352 6.0743C18.2352 6.35683 18.3059 6.60404 18.4473 6.78062C18.5886 6.9572 18.7653 7.13378 18.9774 7.27504C19.1894 7.41631 19.4368 7.52226 19.7195 7.6282C20.0022 7.73415 20.2849 7.8401 20.603 7.94605C20.8857 8.052 21.2038 8.15794 21.4865 8.29921C21.7692 8.44047 22.0166 8.58173 22.2286 8.79363C22.4406 9.00553 22.6173 9.25274 22.7587 9.53527C22.9001 9.81779 22.9707 10.171 22.9707 10.6301C22.9707 11.0539 22.9001 11.407 22.794 11.7602C22.6527 12.078 22.476 12.3959 22.2286 12.6078C21.9812 12.855 21.6632 13.0315 21.2744 13.1728C20.8857 13.3141 20.4263 13.3494 19.9315 13.3494C19.6488 13.3494 19.3661 13.3494 19.1187 13.3141C18.836 13.2788 18.5886 13.2434 18.3766 13.2081C18.1292 13.1728 17.9172 13.1022 17.7051 13.0669C17.4931 12.9962 17.3164 12.9609 17.175 12.8903V10.8066H17.1044Z" fill="white"/>
<path d="M25.8686 13.2081V12.855L27.2822 12.6784V4.83825H26.9288C26.328 4.83825 25.8686 4.83825 25.4445 4.87357C25.0558 4.90888 24.7731 4.9442 24.5964 4.97951L24.4197 6.39215H24.0309V4.27319H31.9117V6.39215H31.4523L31.2756 4.97951C31.2049 4.9442 31.0635 4.9442 30.9222 4.9442C30.7808 4.9442 30.5688 4.90888 30.3567 4.90888C30.1447 4.90888 29.9327 4.87357 29.6853 4.87357C29.4379 4.87357 29.1905 4.87357 28.9431 4.87357H28.6251V12.7137L30.0387 12.8903V13.2435H25.8686V13.2081Z" fill="white"/>
<path d="M34.138 12.855V13.2081H31.2048V12.855L32.2297 12.6784L35.2689 4.16724H36.5411L39.7217 12.6784L40.8525 12.855V13.2081H37.0712V12.855L38.2728 12.6784L37.3893 10.1003H33.8553L32.9365 12.6784L34.138 12.855ZM35.5516 5.15608L34.032 9.49995H37.1419L35.5516 5.15608Z" fill="white"/>
<path d="M43.7504 9.28806V12.6784L45.0933 12.855V13.2081H41.3827V12.855L42.4429 12.6784V4.80293L41.2767 4.62635V4.27319H45.164C45.8001 4.27319 46.3302 4.34383 46.7543 4.44977C47.1784 4.55572 47.4964 4.7323 47.7792 4.9442C48.0265 5.15609 48.2032 5.4033 48.3093 5.68583C48.4153 5.96836 48.486 6.32152 48.486 6.67468C48.486 7.02784 48.4506 7.31037 48.3446 7.5929C48.2386 7.87542 48.0972 8.08732 47.9559 8.29922C47.7792 8.51111 47.6025 8.68769 47.3551 8.79364C47.143 8.9349 46.8957 9.04085 46.6483 9.11148L49.0867 12.6784L50.0409 12.855V13.2081H47.8852L45.3761 9.28806H43.7504V9.28806ZM47.143 6.74531C47.143 6.39215 47.1077 6.07431 47.0017 5.86241C46.931 5.6152 46.7896 5.43862 46.613 5.29736C46.4363 5.15609 46.1889 5.05015 45.9062 4.97951C45.6234 4.90888 45.27 4.87357 44.8813 4.87357H43.7504V8.68769H44.9167C45.3407 8.68769 45.6588 8.65238 45.9415 8.58174C46.2242 8.51111 46.4363 8.40516 46.613 8.22858C46.7896 8.08732 46.8957 7.87542 47.0017 7.62821C47.1077 7.381 47.143 7.09847 47.143 6.74531Z" fill="white"/>
<path d="M50.9951 10.8066H51.4191L51.6665 12.0074C51.7372 12.1133 51.8785 12.2193 52.0199 12.3252C52.1613 12.4312 52.338 12.5018 52.5147 12.5724C52.6914 12.6431 52.9034 12.7137 53.1154 12.749C53.3275 12.7843 53.5042 12.8197 53.7162 12.8197C54.0696 12.8197 54.3523 12.7843 54.5997 12.6784C54.8471 12.5724 55.0591 12.4665 55.2358 12.2899C55.4125 12.1133 55.5185 11.9368 55.5892 11.7249C55.6599 11.513 55.6952 11.2658 55.6952 11.0185C55.6952 10.7007 55.6245 10.4182 55.4832 10.2416C55.3418 10.0297 55.1651 9.85311 54.9531 9.71185C54.7411 9.57058 54.4937 9.42932 54.211 9.35869C53.9282 9.25274 53.6455 9.14679 53.3628 9.04084C53.0801 8.9349 52.762 8.82895 52.5147 8.68768C52.2319 8.54642 51.9846 8.40515 51.7725 8.22857C51.5605 8.05199 51.3838 7.80478 51.2424 7.52226C51.1011 7.23973 51.0304 6.88657 51.0304 6.46278C51.0304 6.10962 51.1011 5.79177 51.2424 5.50924C51.3838 5.22672 51.5605 4.9795 51.8432 4.80292C52.0906 4.59103 52.4086 4.44976 52.7974 4.34382C53.1861 4.23787 53.6102 4.16724 54.0696 4.16724C54.4937 4.16724 54.9178 4.20255 55.3418 4.23787C55.7306 4.3085 56.1193 4.37913 56.4374 4.44976V6.32151H56.0133L55.7659 5.22672C55.5539 5.08545 55.3418 4.9795 55.0591 4.87356C54.7764 4.76761 54.4583 4.73229 54.1049 4.73229C53.7869 4.73229 53.5042 4.76761 53.2568 4.83824C53.0094 4.90887 52.8327 5.01482 52.656 5.12077C52.5147 5.22672 52.3733 5.4033 52.3026 5.54456C52.2319 5.72114 52.1966 5.89772 52.1966 6.0743C52.1966 6.35683 52.2673 6.60404 52.4086 6.78062C52.55 6.9572 52.7267 7.13378 52.9387 7.27504C53.1508 7.41631 53.3981 7.52226 53.6809 7.6282C53.9636 7.73415 54.2463 7.8401 54.5644 7.94605C54.8471 8.052 55.1651 8.15794 55.4478 8.29921C55.7306 8.44047 55.9779 8.58173 56.19 8.79363C56.402 9.00553 56.5787 9.25274 56.7201 9.53527C56.8614 9.81779 56.9321 10.171 56.9321 10.6301C56.9321 11.0539 56.8614 11.407 56.7554 11.7602C56.6141 12.078 56.4374 12.3959 56.19 12.6078C55.9426 12.855 55.6245 13.0315 55.2358 13.1728C54.8471 13.3141 54.3877 13.3494 53.8929 13.3494C53.6102 13.3494 53.3628 13.3494 53.0801 13.3141C52.7974 13.2788 52.55 13.2434 52.338 13.2081C52.0906 13.1728 51.8785 13.1022 51.6665 13.0669C51.4545 12.9962 51.2778 12.9609 51.1364 12.8903V10.8066H50.9951Z" fill="white"/>
<path d="M60.6074 35.4219C60.6074 35.8104 60.2893 36.1635 59.8653 36.1635H0.742131C0.353396 36.1635 0 35.8457 0 35.4219V27.6877C0 27.2992 0.318056 26.946 0.742131 26.946H59.9006C60.2893 26.946 60.6427 27.2639 60.6427 27.6877V35.4219H60.6074Z" fill="#231F20"/>
<path d="M22.3346 31.6078L20.7797 31.0075V29.7714C20.7797 29.6301 20.6383 29.4889 20.497 29.4889H19.1894L18.5886 27.7937L17.9525 29.4889H16.6096C16.4683 29.4889 16.3269 29.6301 16.3269 29.7714V30.9721L14.772 31.5372L16.3269 32.1376V33.3736C16.3269 33.5149 16.4683 33.6562 16.6096 33.6562H17.9172L18.518 35.3513L19.1541 33.6562H20.497C20.6383 33.6562 20.7797 33.5502 20.7797 33.3736V32.1729L22.3346 31.6078Z" fill="#FAAE2D"/>
<path d="M18.0939 31.749C17.9879 31.7843 17.8465 31.8196 17.7051 31.8196C16.963 31.8196 16.6803 31.2546 16.6803 30.7955C16.6803 30.3717 16.963 29.8066 17.7051 29.8066C18.3059 29.8066 18.73 30.1598 18.73 30.7602C18.73 31.2193 18.4473 31.5018 18.2706 31.6078L18.7653 31.855C19.2954 32.1375 19.6488 32.1728 19.8255 32.1728C19.9669 32.1728 20.1436 32.1375 20.3203 32.0669H20.3556C20.3556 32.0669 20.391 32.0669 20.391 32.1022C20.391 32.1022 20.391 32.1375 20.3556 32.1375C20.2143 32.2081 19.9315 32.3141 19.5428 32.3141C19.1541 32.3141 18.9067 32.2081 18.4826 31.9609L18.0939 31.749ZM18.3766 30.8661C18.3766 30.2657 17.9879 29.9479 17.6345 29.9479C17.3164 29.9479 16.9984 30.1598 16.9984 30.7602C16.9984 31.3605 17.3517 31.7137 17.7758 31.7137C18.0232 31.7137 18.3766 31.6078 18.3766 30.8661Z" fill="white"/>
<path d="M19.1894 31.7491C19.1541 31.7138 19.1541 31.7138 19.1541 31.6785C19.1541 31.5372 19.1541 31.3959 19.1541 31.3606C19.1541 31.3253 19.1541 31.29 19.1894 31.29C19.2247 31.29 19.2247 31.3253 19.2247 31.3253C19.2247 31.3606 19.2247 31.3959 19.2601 31.4666C19.3307 31.6432 19.4721 31.7138 19.6135 31.7138C19.8255 31.7138 19.9669 31.5725 19.9669 31.4313C19.9669 31.29 19.9315 31.184 19.7195 31.0428L19.6135 30.9368C19.3307 30.7249 19.2247 30.5484 19.2247 30.3365C19.2247 30.0539 19.4721 29.842 19.8255 29.842C20.0022 29.842 20.1082 29.8774 20.1789 29.8774C20.2142 29.8774 20.2142 29.8774 20.2142 29.9127C20.2142 29.948 20.2142 30.0186 20.2142 30.2305C20.2142 30.3011 20.2142 30.3012 20.1789 30.3012C20.1436 30.3012 20.1436 30.3011 20.1436 30.2658C20.1436 30.2305 20.1436 30.1599 20.0729 30.0893C20.0375 30.0539 19.9669 29.948 19.7902 29.948C19.6135 29.948 19.4721 30.0539 19.4721 30.1952C19.4721 30.3011 19.5428 30.4071 19.7548 30.5484L19.8255 30.619C20.1436 30.8662 20.2496 31.0075 20.2496 31.2547C20.2496 31.3959 20.1789 31.5725 20.0022 31.7138C19.8608 31.7844 19.7195 31.8197 19.6135 31.8197C19.4014 31.8197 19.2954 31.8197 19.1894 31.7491Z" fill="white"/>
<path d="M20.391 33.1971C20.391 33.2324 19.5781 33.303 18.5533 33.303C17.5284 33.303 16.7156 33.2677 16.7156 33.1971C16.7156 33.1618 17.5284 33.1265 18.5533 33.1265C19.5781 33.1265 20.391 33.1618 20.391 33.1971Z" fill="#808184"/>
<path d="M34.1027 31.6078L32.5478 31.0075V29.7714C32.5478 29.6301 32.4064 29.4889 32.2651 29.4889H30.9575L30.3567 27.7937L29.7206 29.4889H28.3777C28.2363 29.4889 28.095 29.6301 28.095 29.7714V30.9721L26.5047 31.5372L28.0596 32.1376V33.3736C28.0596 33.5149 28.201 33.6562 28.3424 33.6562H29.6853L30.286 35.3513L30.9222 33.6562H32.2651C32.4064 33.6562 32.5478 33.5502 32.5478 33.3736V32.1729L34.1027 31.6078Z" fill="#FAAE2D"/>
<path d="M29.8619 31.749C29.7559 31.7843 29.6146 31.8196 29.4732 31.8196C28.7311 31.8196 28.4484 31.2546 28.4484 30.7955C28.4484 30.3717 28.7311 29.8066 29.4732 29.8066C30.074 29.8066 30.4981 30.1598 30.4981 30.7602C30.4981 31.2193 30.2153 31.5018 30.0386 31.6078L30.5334 31.855C31.0635 32.1375 31.4169 32.1728 31.5936 32.1728C31.7349 32.1728 31.9116 32.1375 32.0883 32.0669H32.1237C32.1237 32.0669 32.159 32.0669 32.159 32.1022C32.159 32.1022 32.159 32.1375 32.1237 32.1375C31.9823 32.2081 31.6996 32.3141 31.3109 32.3141C30.9221 32.3141 30.6748 32.2081 30.2507 31.9609L29.8619 31.749ZM30.1447 30.8661C30.1447 30.2657 29.7559 29.9479 29.4025 29.9479C29.0845 29.9479 28.7664 30.1598 28.7664 30.7602C28.7664 31.3605 29.1198 31.7137 29.5439 31.7137C29.7913 31.7137 30.1447 31.6078 30.1447 30.8661Z" fill="white"/>
<path d="M30.9575 31.7491C30.9221 31.7138 30.9221 31.7138 30.9221 31.6785C30.9221 31.5372 30.9221 31.3959 30.9221 31.3606C30.9221 31.3253 30.9221 31.29 30.9575 31.29C30.9928 31.29 30.9928 31.3253 30.9928 31.3253C30.9928 31.3606 30.9928 31.3959 31.0281 31.4666C31.0988 31.6432 31.2402 31.7138 31.3815 31.7138C31.6289 31.7138 31.7349 31.5725 31.7349 31.4313C31.7349 31.29 31.6996 31.184 31.4876 31.0428L31.3815 30.9368C31.0988 30.7249 30.9928 30.5484 30.9928 30.3365C30.9928 30.0539 31.2402 29.842 31.5936 29.842C31.7703 29.842 31.8763 29.8774 31.947 29.8774C31.9823 29.8774 31.9823 29.8774 31.9823 29.9127C31.9823 29.948 31.9823 30.0186 31.9823 30.2305C31.9823 30.3011 31.9823 30.3012 31.947 30.3012C31.9116 30.3012 31.9116 30.3011 31.9116 30.2658C31.9116 30.2305 31.9116 30.1599 31.841 30.0893C31.8056 30.0539 31.7349 29.948 31.5582 29.948C31.3815 29.948 31.2402 30.0539 31.2402 30.1952C31.2402 30.3011 31.3109 30.4071 31.5229 30.5484L31.5936 30.619C31.9116 30.8662 32.0176 31.0075 32.0176 31.2547C32.0176 31.3959 31.947 31.5725 31.7703 31.7138C31.6289 31.7844 31.4876 31.8197 31.3815 31.8197C31.1695 31.8197 31.0635 31.8197 30.9575 31.7491Z" fill="white"/>
<path d="M32.159 33.1971C32.159 33.2324 31.3462 33.303 30.3214 33.303C29.2965 33.303 28.4837 33.2677 28.4837 33.1971C28.4837 33.1618 29.2965 33.1265 30.3214 33.1265C31.3462 33.1265 32.159 33.1618 32.159 33.1971Z" fill="#808184"/>
<path d="M45.8708 31.6078L44.3158 31.0075V29.7714C44.3158 29.6301 44.1745 29.4889 44.0331 29.4889H42.7256L42.1248 27.7937L41.4887 29.4889H40.1458C40.0044 29.4889 39.863 29.6301 39.863 29.7714V30.9721L38.3081 31.5372L39.863 32.1376V33.3736C39.863 33.5149 40.0044 33.6562 40.1458 33.6562H41.4533L42.0541 35.3513L42.6902 33.6562H44.0331C44.1745 33.6562 44.3158 33.5502 44.3158 33.3736V32.1729L45.8708 31.6078Z" fill="#FAAE2D"/>
<path d="M41.6301 31.749C41.5241 31.7843 41.3827 31.8196 41.2413 31.8196C40.4992 31.8196 40.2165 31.2546 40.2165 30.7955C40.2165 30.3717 40.4992 29.8066 41.2413 29.8066C41.8421 29.8066 42.2662 30.1598 42.2662 30.7602C42.2662 31.2193 41.9835 31.5018 41.8068 31.6078L42.3015 31.855C42.8316 32.1375 43.185 32.1728 43.3617 32.1728C43.5031 32.1728 43.6798 32.1375 43.8565 32.0669H43.8918C43.8918 32.0669 43.9271 32.0669 43.9271 32.1022C43.9271 32.1022 43.9271 32.1375 43.8918 32.1375C43.7504 32.2081 43.4677 32.3141 43.079 32.3141C42.6903 32.3141 42.4075 32.2081 42.0188 31.9609L41.6301 31.749ZM41.9128 30.8661C41.9128 30.2657 41.5241 29.9479 41.1707 29.9479C40.8526 29.9479 40.5345 30.1598 40.5345 30.7602C40.5345 31.3605 40.8879 31.7137 41.312 31.7137C41.5594 31.7137 41.9128 31.6078 41.9128 30.8661Z" fill="white"/>
<path d="M42.7256 31.7491C42.6902 31.7138 42.6902 31.7138 42.6902 31.6785C42.6902 31.5372 42.6902 31.3959 42.6902 31.3606C42.6902 31.3253 42.6902 31.29 42.7256 31.29C42.7609 31.29 42.7609 31.3253 42.7609 31.3253C42.7609 31.3606 42.7609 31.3959 42.7963 31.4666C42.8669 31.6432 43.0083 31.7138 43.1497 31.7138C43.3617 31.7138 43.5031 31.5725 43.5031 31.4313C43.5031 31.29 43.4677 31.184 43.2557 31.0428L43.1497 30.9368C42.8669 30.7249 42.7609 30.5484 42.7609 30.3365C42.7609 30.0539 43.0083 29.842 43.3617 29.842C43.5384 29.842 43.6444 29.8774 43.7151 29.8774C43.7504 29.8774 43.7504 29.8774 43.7504 29.9127C43.7504 29.948 43.7504 30.0186 43.7504 30.2305C43.7504 30.3011 43.7504 30.3012 43.7151 30.3012C43.7151 30.3012 43.6798 30.3011 43.6798 30.2658C43.6798 30.2305 43.6798 30.1599 43.6091 30.0893C43.5737 30.0539 43.5031 29.948 43.3264 29.948C43.1497 29.948 43.0083 30.0539 43.0083 30.1952C43.0083 30.3011 43.079 30.4071 43.291 30.5484L43.3617 30.619C43.6798 30.8662 43.7858 31.0075 43.7858 31.2547C43.7858 31.3959 43.7151 31.5725 43.5384 31.7138C43.397 31.7844 43.2557 31.8197 43.1497 31.8197C42.9376 31.8197 42.8316 31.8197 42.7256 31.7491Z" fill="white"/>
<path d="M43.9271 33.1971C43.9271 33.2324 43.1143 33.303 42.0894 33.303C41.0646 33.303 40.2518 33.2677 40.2518 33.1971C40.2518 33.1618 41.0646 33.1265 42.0894 33.1265C43.1143 33.1265 43.9271 33.1618 43.9271 33.1971Z" fill="#808184"/>
<path d="M62.1624 0.141264H61.7383V1.20074H61.5616V0.141264H61.1375V0H62.1624V0.141264Z" fill="#231F20"/>
<path d="M63.4699 1.20074H63.2932V0.282528L62.9045 0.741636H62.8691L62.5157 0.282528H62.4804V1.20074H62.3391V0H62.4804L62.9045 0.494424L63.2932 0H63.4699V1.20074Z" fill="#231F20"/>
<path d="M27.1054 25.6748H24.879V25.2863C25.0557 25.1098 25.2324 24.9685 25.3738 24.8272C25.5151 24.686 25.6565 24.58 25.7979 24.4388C25.9039 24.3328 26.0099 24.2269 26.1159 24.1209C26.2219 24.015 26.2926 23.909 26.328 23.8031C26.3986 23.6971 26.434 23.5559 26.4693 23.4146C26.5047 23.2733 26.5047 23.0967 26.5047 22.9555C26.5047 22.7083 26.434 22.5317 26.328 22.4257C26.2219 22.3198 26.0452 22.2492 25.7979 22.2492C25.7272 22.2492 25.6918 22.2492 25.6212 22.2492C25.5505 22.2492 25.5151 22.2845 25.4798 22.2845C25.4445 22.2845 25.3738 22.3198 25.3384 22.3198C25.3031 22.3198 25.2678 22.3551 25.2324 22.3551L25.1264 22.8142H24.9497V22.1079C25.0911 22.0726 25.2324 22.0373 25.3384 22.0373C25.4798 22.002 25.6212 22.002 25.7625 22.002C26.1513 22.002 26.4693 22.0726 26.646 22.2492C26.858 22.4257 26.9287 22.6376 26.9287 22.9555C26.9287 23.0967 26.8934 23.238 26.858 23.3793C26.8227 23.5205 26.752 23.6265 26.6813 23.7324C26.6107 23.8384 26.5047 23.9796 26.434 24.0856C26.328 24.1915 26.2219 24.3328 26.0806 24.4388C25.9392 24.5447 25.7979 24.686 25.6565 24.8272C25.4798 24.9685 25.3384 25.1098 25.1617 25.2863H27.0347V25.6748H27.1054Z" fill="#231F20"/>
<path d="M35.3043 25.6748H33.0779V25.2863C33.2546 25.1098 33.4313 24.9685 33.5726 24.8272C33.714 24.686 33.8554 24.58 33.9967 24.4388C34.1027 24.3328 34.2087 24.2269 34.3148 24.1209C34.4208 24.015 34.4915 23.909 34.5268 23.8031C34.5975 23.6971 34.6328 23.5559 34.6682 23.4146C34.7035 23.2733 34.7035 23.1321 34.7035 22.9555C34.7035 22.7083 34.6328 22.5317 34.5268 22.4257C34.4208 22.3198 34.2441 22.2492 33.9967 22.2492C33.926 22.2492 33.8907 22.2492 33.82 22.2492C33.7493 22.2492 33.714 22.2845 33.6787 22.2845C33.6433 22.2845 33.5726 22.3198 33.5373 22.3198C33.502 22.3198 33.4666 22.3551 33.4313 22.3551L33.3253 22.8142H33.2192V22.1079C33.3606 22.0726 33.502 22.0373 33.608 22.0373C33.7493 22.002 33.8907 22.002 34.0321 22.002C34.4208 22.002 34.7388 22.0726 34.9155 22.2492C35.1276 22.4257 35.1983 22.6376 35.1983 22.9555C35.1983 23.0967 35.1629 23.238 35.1276 23.3793C35.0922 23.5205 35.0216 23.6265 34.9509 23.7324C34.8802 23.8384 34.7742 23.9796 34.7035 24.0856C34.5975 24.1915 34.4915 24.3328 34.3501 24.4388C34.2087 24.5447 34.0674 24.686 33.926 24.8272C33.7493 24.9685 33.608 25.1098 33.4313 25.2863H35.3043V25.6748V25.6748Z" fill="#231F20"/>
<path d="M29.968 23.8382C29.968 24.1561 29.9326 24.4033 29.8973 24.6505C29.862 24.8977 29.7913 25.0743 29.6853 25.2509C29.5792 25.4274 29.4732 25.5334 29.2965 25.604C29.1552 25.6746 28.9785 25.71 28.7664 25.71C28.3777 25.71 28.095 25.5334 27.8829 25.2155C27.7062 24.8977 27.6002 24.4386 27.6002 23.8029C27.6002 23.2025 27.7062 22.7434 27.8829 22.4256C28.095 22.1077 28.3777 21.9312 28.7664 21.9312C29.1552 21.9312 29.4379 22.0724 29.6499 22.3903C29.862 22.7787 29.968 23.2378 29.968 23.8382ZM29.4732 23.8382C29.4732 23.591 29.4732 23.3438 29.4379 23.1319C29.4025 22.92 29.3672 22.7434 29.3319 22.6022C29.2612 22.4609 29.1905 22.3549 29.1198 22.2843C29.0138 22.2137 28.9078 22.1784 28.8018 22.1784C28.6604 22.1784 28.5544 22.2137 28.4837 22.2843C28.413 22.3549 28.3424 22.4609 28.2717 22.6022C28.2363 22.7434 28.201 22.92 28.1657 23.1319C28.1303 23.3438 28.1303 23.5557 28.1303 23.8382C28.1303 24.0854 28.1303 24.3326 28.1657 24.5445C28.201 24.7564 28.201 24.933 28.2717 25.0743C28.307 25.2155 28.3777 25.3215 28.4837 25.3921C28.5544 25.4628 28.6957 25.4981 28.8018 25.4981C28.9431 25.4981 29.0491 25.4628 29.1198 25.3921C29.2258 25.3215 29.2965 25.2155 29.3319 25.0743C29.3672 24.933 29.4379 24.7564 29.4379 24.5445C29.4732 24.3326 29.4732 24.0854 29.4732 23.8382Z" fill="#231F20"/>
<path d="M31.8764 25.4629L32.6185 25.5336V25.6748H30.6748V25.5336L31.4169 25.4629V22.4964L30.6748 22.7436V22.6023L31.735 22.002H31.8764V25.4629Z" fill="#231F20"/>
<path d="M70.7498 36.1989V34.6803H71.492V30.0892H70.8912L70.5024 31.29H69.3009V28.606H75.6974V31.29H74.4605L74.1071 30.0892H73.471V34.6803H74.2485V36.1989H70.7498Z" fill="#F27125"/>
<path d="M76.1215 36.1989V34.6803H76.8989V30.1245H76.1215V28.606H80.8216C81.2104 28.606 81.5638 28.6766 81.8465 28.8532C82.1292 29.0297 82.3766 29.2416 82.5533 29.5595C82.73 29.842 82.8006 30.1952 82.8006 30.5837C82.8006 30.7955 82.7653 30.9721 82.73 31.1487C82.6946 31.3253 82.5886 31.4666 82.4826 31.6078C82.3766 31.7491 82.2352 31.8903 82.0938 31.9963C81.9525 32.1022 81.7404 32.2082 81.5284 32.2788C81.8818 32.3848 82.1292 32.526 82.2705 32.6673C82.4119 32.8086 82.4826 33.0558 82.4826 33.3736V34.6803H83.154V36.1989H80.5036V34.4331C80.5036 34.0446 80.4682 33.7621 80.4329 33.5502C80.3975 33.3736 80.2915 33.197 80.1502 33.1264C80.0088 33.0205 79.7614 32.9851 79.4434 32.9851H78.8426V34.6803H79.4434V36.1989H76.1215V36.1989ZM78.8779 30.1245V31.7138H79.6554C80.0088 31.7138 80.2562 31.6431 80.4329 31.5019C80.6096 31.3606 80.6803 31.184 80.6803 30.9015C80.6803 30.619 80.6096 30.4424 80.4329 30.3011C80.2562 30.1599 80.0088 30.0892 79.6201 30.0892H78.8779V30.1245Z" fill="#F27125"/>
<path d="M84.1436 33.5502V30.0892H83.3661V28.606H86.9V30.1245H86.0872V33.303C86.0872 33.6915 86.1933 34.0093 86.4053 34.2212C86.6173 34.4331 86.9001 34.539 87.2888 34.539C87.6775 34.539 87.9602 34.4331 88.1723 34.2212C88.3843 34.0093 88.4903 33.7268 88.4903 33.303V30.1245H87.7129V28.606H90.4693V29.8773C90.646 29.8773 90.8227 29.8067 90.9641 29.7008C91.1055 29.5948 91.1761 29.4889 91.1761 29.3829H90.9641V28.606H91.7416V29.5242C91.7062 29.7714 91.5295 29.948 91.2468 30.0892C90.9641 30.2305 90.7167 30.3011 90.4693 30.3011V33.5502C90.4693 33.974 90.3987 34.3625 90.2573 34.7156C90.116 35.0688 89.9039 35.3513 89.6212 35.5985C89.3385 35.8457 89.0204 36.0223 88.6317 36.1636C88.243 36.3048 87.8189 36.3402 87.3241 36.3402C86.8294 36.3402 86.4053 36.2695 86.0166 36.1636C85.6278 36.0223 85.3098 35.8457 85.0271 35.5985C84.7443 35.3513 84.5323 35.0688 84.3909 34.7156C84.2142 34.3625 84.1436 33.974 84.1436 33.5502Z" fill="#F27125"/>
<path d="M91.5649 32.3848C91.5649 31.9964 91.6002 31.6079 91.7062 31.2547C91.8123 30.9016 91.9536 30.5484 92.1656 30.2306C92.3777 29.9127 92.6251 29.6302 92.9078 29.383C93.1552 29.1711 93.4025 28.9945 93.6853 28.8532C93.968 28.712 94.286 28.606 94.6041 28.5354C94.9221 28.4648 95.2402 28.4294 95.6289 28.4294C96.0883 28.4294 96.5124 28.5001 96.9012 28.606C97.2899 28.712 97.6433 28.8885 97.926 29.1004C98.2441 29.3123 98.4914 29.5596 98.7388 29.8421C98.9508 29.8068 99.0922 29.7361 99.1982 29.5949C99.3042 29.4536 99.3749 29.3123 99.3749 29.2064H99.1629V28.4648H99.9404V29.383C99.905 29.6302 99.799 29.8068 99.5516 29.948C99.3396 30.0893 99.1275 30.1599 98.9508 30.1599C99.4103 30.8309 99.6576 31.5726 99.6576 32.4201C99.6576 33.6209 99.1982 34.6097 98.3147 35.3867C97.5726 36.0224 96.6891 36.3402 95.6289 36.3402C94.5687 36.3402 93.6853 36.0224 92.9431 35.3867C92.6604 35.1395 92.413 34.857 92.201 34.5391C91.989 34.2213 91.8476 33.9034 91.7416 33.5503C91.6356 33.1618 91.5649 32.7733 91.5649 32.3848ZM93.6853 32.3848C93.6853 32.7733 93.7559 33.1618 93.9326 33.4796C94.1093 33.7975 94.3567 34.0447 94.6394 34.2213C94.9575 34.3978 95.2755 34.5038 95.6289 34.5038C95.9823 34.5038 96.3357 34.3978 96.6184 34.2213C96.9012 34.0447 97.1485 33.7975 97.3252 33.4796C97.5019 33.1618 97.5726 32.8086 97.5726 32.3848C97.5726 31.9964 97.5019 31.6079 97.3252 31.29C97.1485 30.9722 96.9012 30.725 96.6184 30.5484C96.3004 30.3718 95.9823 30.2659 95.6289 30.2659C95.2755 30.2659 94.9221 30.3718 94.6394 30.5484C94.3567 30.725 94.1093 30.9722 93.9326 31.29C93.7559 31.6432 93.6853 31.9964 93.6853 32.3848ZM94.5687 26.4871H95.5936L96.3004 27.8291H95.7349L94.5687 26.4871Z" fill="#F27125"/>
<path d="M100.188 36.1989V34.6803H100.965V30.1245H100.188V28.606H102.909L105.418 32.7732L105.383 30.1245H104.57V28.606H108.033V30.1245H107.291V36.1989H105.63L102.838 31.6078L102.874 34.6803H103.686V36.1989H100.188Z" fill="#F27125"/>
<path d="M114.076 33.4089H113.122V31.9963H116.974V33.4089H116.303V36.1636H114.642V35.1747C114.041 35.9517 113.228 36.3048 112.239 36.3048C111.92 36.3048 111.602 36.2695 111.32 36.1989C111.002 36.1283 110.719 36.0223 110.436 35.881C110.154 35.7398 109.906 35.5632 109.729 35.3866C109.305 34.9981 108.987 34.539 108.74 34.0446C108.528 33.5149 108.387 32.9851 108.387 32.4201C108.387 32.0316 108.422 31.6431 108.528 31.29C108.634 30.9368 108.775 30.5836 108.987 30.2658C109.199 29.948 109.447 29.6654 109.729 29.4182C110.083 29.1357 110.472 28.8885 110.896 28.7472C111.32 28.5706 111.779 28.5 112.274 28.5C113.087 28.5 113.687 28.7472 114.147 29.2063V28.6059H115.914V31.2546H114.006C113.723 30.619 113.228 30.2658 112.451 30.2658C112.168 30.2658 111.885 30.3011 111.673 30.4071C111.426 30.513 111.214 30.6543 111.037 30.8309C110.86 31.0074 110.719 31.2546 110.613 31.5019C110.507 31.7844 110.472 32.0669 110.472 32.3494C110.472 32.6673 110.507 32.9498 110.613 33.197C110.719 33.4442 110.825 33.6915 111.002 33.868C111.178 34.0446 111.39 34.1859 111.638 34.2918C111.885 34.3978 112.133 34.4331 112.451 34.4331C112.804 34.4331 113.122 34.3271 113.405 34.1506C113.723 34.0446 113.935 33.7621 114.076 33.4089Z" fill="#F27125"/>
<path d="M120.19 36.1989V34.6803H120.967V32.9851H119.978V31.5725H120.967V30.1599H120.19V28.606H123.795C124.325 28.606 124.784 28.6413 125.137 28.7119C125.526 28.7825 125.809 28.8532 126.056 28.9944C126.728 29.3476 127.223 29.8067 127.541 30.3718C127.859 30.9368 128 31.6078 128 32.4201C128 32.9498 127.929 33.4442 127.788 33.868C127.647 34.2918 127.435 34.6803 127.152 34.9982C126.869 35.316 126.48 35.5985 126.056 35.8457C125.809 35.9517 125.526 36.0576 125.137 36.1283C124.749 36.1989 124.289 36.2342 123.795 36.2342H120.19V36.1989ZM122.982 30.1245V31.5372H124.466V32.9498H122.982V34.645H123.583C124.077 34.645 124.537 34.5744 124.89 34.3978C125.243 34.2212 125.526 33.974 125.703 33.6208C125.88 33.2677 125.986 32.8792 125.986 32.3848C125.986 31.8903 125.88 31.4666 125.703 31.1134C125.526 30.7602 125.243 30.513 124.89 30.3364C124.537 30.1599 124.077 30.0892 123.583 30.0892H122.982V30.1245Z" fill="#F27125"/>
<path d="M128.318 36.1989V34.6803H128.954L130.368 30.1245H129.626V28.606H134.962V30.1245H134.22L135.633 34.6803H136.269V36.1989H132.948V34.6803H133.619L133.301 33.6561H131.216L130.933 34.6803H131.605V36.1989H128.318ZM131.569 32.3141H133.054L132.311 29.9126L131.569 32.3141ZM131.746 36.8346H132.771V37.8587H131.746V36.8346Z" fill="#F27125"/>
<path d="M136.552 36.1989V34.6803H137.33V30.1245H136.552V28.606H140.086V30.1245H139.309V34.6803H140.086V36.1989H136.552Z" fill="#F27125"/>
<path d="M143.514 36.1989V34.6803H144.292V30.1245H143.514V28.606H147.048V30.1245H146.271V31.5019H148.497V30.1245H147.684V28.606H151.253V30.1245H150.476V34.6803H151.253V36.1989H147.684V34.6803H148.497V33.0205H146.271V34.6803H147.048V36.1989H143.514Z" fill="#F27125"/>
<path d="M151.748 32.3848C151.748 31.9964 151.784 31.6079 151.89 31.2547C151.996 30.9016 152.137 30.5484 152.349 30.2306C152.561 29.9127 152.808 29.6302 153.091 29.383C153.339 29.1711 153.586 28.9945 153.869 28.8532C154.151 28.712 154.469 28.606 154.787 28.5354C155.105 28.4648 155.424 28.4294 155.812 28.4294C156.342 28.4294 156.837 28.5001 157.297 28.6767C157.756 28.8532 158.145 29.0651 158.498 29.383C159.417 30.1952 159.841 31.1841 159.841 32.3495C159.841 33.5149 159.382 34.5391 158.498 35.3161C157.756 35.9517 156.872 36.2696 155.812 36.2696C154.752 36.2696 153.869 35.9517 153.126 35.3161C152.844 35.0688 152.596 34.7863 152.384 34.4685C152.172 34.1506 152.031 33.8328 151.925 33.4796C151.819 33.1618 151.748 32.7733 151.748 32.3848ZM153.833 32.3848C153.833 32.7733 153.904 33.1618 154.081 33.4796C154.257 33.7975 154.505 34.0447 154.787 34.2213C155.105 34.3978 155.424 34.5038 155.777 34.5038C156.13 34.5038 156.484 34.3978 156.766 34.2213C157.049 34.0447 157.297 33.7975 157.473 33.4796C157.65 33.1618 157.721 32.8086 157.721 32.3848C157.721 31.9964 157.65 31.6079 157.473 31.29C157.297 30.9722 157.049 30.725 156.766 30.5484C156.448 30.3718 156.13 30.2659 155.777 30.2659C155.424 30.2659 155.07 30.3718 154.787 30.5484C154.469 30.725 154.257 30.9722 154.081 31.29C153.939 31.6432 153.833 31.9964 153.833 32.3848ZM155.247 36.9759H156.272V38.0001H155.247V36.9759Z" fill="#F27125"/>
<path d="M166.273 33.4089H168.393C168.216 34.0093 167.934 34.539 167.545 34.9628C167.156 35.3866 166.697 35.7398 166.167 35.987C165.637 36.2342 165.036 36.3401 164.435 36.3401C163.375 36.3401 162.491 36.0223 161.749 35.3866C161.467 35.1394 161.219 34.8569 161.007 34.539C160.795 34.2212 160.654 33.9033 160.548 33.5502C160.442 33.197 160.406 32.8086 160.406 32.4201C160.406 31.8197 160.512 31.29 160.76 30.7955C160.972 30.3011 161.325 29.842 161.785 29.4535C162.527 28.8178 163.41 28.5 164.47 28.5C164.895 28.5 165.283 28.5706 165.637 28.7119C165.99 28.8532 166.308 29.0651 166.555 29.3123V28.6059H168.322V31.5372H166.414C166.273 31.1134 166.025 30.8309 165.707 30.619C165.389 30.4071 165.001 30.3011 164.576 30.3011C164.188 30.3011 163.834 30.4071 163.516 30.5836C163.198 30.7602 162.951 31.0074 162.774 31.3253C162.597 31.6431 162.527 31.9963 162.527 32.4201C162.527 32.8086 162.597 33.197 162.774 33.5149C162.951 33.8327 163.198 34.0799 163.481 34.2565C163.799 34.4331 164.117 34.539 164.47 34.539C165.248 34.5037 165.884 34.1506 166.273 33.4089Z" fill="#F27125"/>
<path d="M171.644 36.1989V34.6803H172.422V30.1245H171.644V28.606H178.359V31.3606H177.016L176.557 30.1245H174.401V31.3606H175.814V33.0205H174.401V34.6803H175.426V36.1989H171.644Z" fill="#F27125"/>
<path d="M178.783 36.1989V34.6803H179.56V30.1245H178.783V28.606H182.67C183.2 28.606 183.66 28.7119 184.049 28.8885C184.437 29.1004 184.72 29.3829 184.932 29.7361C185.144 30.0892 185.25 30.513 185.25 31.0074C185.25 31.3606 185.179 31.6784 185.073 31.9963C184.967 32.2788 184.791 32.5613 184.579 32.7732C184.367 32.9851 184.084 33.1617 183.766 33.2677C183.448 33.3736 183.094 33.4442 182.706 33.4442H181.575V34.7156H182.388V36.2342H178.783V36.1989ZM181.504 30.1245V31.9963H182.034C182.847 31.9963 183.236 31.6784 183.236 31.0428C183.236 30.4071 182.847 30.1245 182.034 30.1245H181.504Z" fill="#F27125"/>
<path d="M187.052 36.1989V34.6803H187.83V30.0892H187.229L186.84 31.29H185.604V28.606H192V31.29H190.798L190.41 30.0892H189.809V34.6803H190.551V36.1989H187.052Z" fill="#F27125"/>
<path d="M124.996 3.81421C123.194 3.81421 121.674 4.97964 121.038 6.63949C121.003 6.71012 120.897 7.06328 120.897 7.06328L118.388 17.87H124.113C126.092 17.87 127.753 16.4573 128.212 14.5503L130.686 3.81421H124.996V3.81421Z" fill="#0DB04B"/>
<path d="M115.454 0.706299C113.546 0.706299 111.92 2.01299 111.426 3.77879C111.39 3.92005 111.355 4.06132 111.32 4.16727L107.432 20.9777H113.157C115.136 20.9777 116.762 19.6357 117.221 17.7992L121.179 0.706299H115.454Z" fill="#F26F21"/>
<path d="M104.464 3.81421C102.591 3.81421 101.036 5.08558 100.435 6.81607C100.435 6.85138 100.4 6.8867 100.4 6.92202L100.294 7.31049L97.8907 17.87H103.757C105.524 17.87 107.008 16.7045 107.609 15.08L107.856 14.0912L110.224 3.81421H104.464V3.81421Z" fill="#0066B2"/>
<path d="M103.404 7.3457H103.298C102.874 7.3457 102.52 7.48697 102.167 7.7695C101.813 8.05202 101.601 8.36987 101.531 8.65239L100.223 14.3383H100.294C100.718 14.3383 101.107 14.197 101.46 13.9145C101.813 13.6319 102.061 13.2788 102.131 12.855L102.414 11.6189H105.029C105.453 11.6189 105.842 11.4777 106.195 11.1951C106.549 10.9126 106.761 10.5595 106.867 10.1357V10.065H102.768L103.05 8.89961H106.584C107.008 8.89961 107.362 8.75834 107.715 8.47581C108.068 8.19329 108.281 7.84013 108.387 7.41634L108.422 7.3457H103.404Z" fill="white"/>
<path d="M117.893 7.66346C117.681 7.45157 117.363 7.3103 117.009 7.3103H111.991L110.366 14.3382H110.436C110.86 14.3382 111.249 14.1969 111.602 13.9144C111.956 13.6319 112.203 13.2787 112.274 12.8549L112.557 11.6189H116.02C116.444 11.6189 116.797 11.5835 117.151 11.301C117.504 11.0185 117.752 10.5594 117.858 10.1356L118.176 8.82889C118.211 8.72294 118.211 8.61699 118.211 8.51105C118.246 8.1932 118.105 7.91067 117.893 7.66346ZM116.338 10.0649H112.945L113.228 8.89952H116.621L116.338 10.0649Z" fill="white"/>
<path d="M128.071 7.69886C127.859 7.48697 127.541 7.3457 127.187 7.3457H124.996H124.855H121.922V7.38102C121.886 7.48697 121.886 7.59292 121.886 7.69886C121.886 8.05202 121.992 8.33455 122.204 8.54645C122.416 8.75834 122.734 8.89961 123.088 8.89961H124.183L122.911 14.3736H122.982C123.406 14.3736 123.795 14.2323 124.148 13.9498C124.501 13.6673 124.749 13.3141 124.819 12.8903L125.738 8.89961H128.353V8.86429C128.389 8.75834 128.389 8.6524 128.389 8.54645C128.424 8.19329 128.318 7.91076 128.071 7.69886Z" fill="white"/>
<path d="M129.131 16.6693C129.131 15.9982 129.661 15.4685 130.332 15.4685C131.004 15.4685 131.534 15.9982 131.534 16.6693C131.534 17.3403 131.004 17.87 130.332 17.87C129.661 17.87 129.131 17.3403 129.131 16.6693ZM131.251 16.6693C131.251 16.1042 130.827 15.6804 130.332 15.6804C129.838 15.6804 129.414 16.1042 129.414 16.6693C129.414 17.2343 129.838 17.6581 130.332 17.6581C130.827 17.6581 131.251 17.2343 131.251 16.6693ZM129.873 15.9629H130.368C130.686 15.9629 130.862 16.0689 130.862 16.3514C130.862 16.5986 130.721 16.7046 130.509 16.7046L130.862 17.3049H130.615L130.262 16.7046H130.12V17.3049H129.873V15.9629ZM130.12 16.5633H130.332C130.474 16.5633 130.615 16.528 130.615 16.3514C130.615 16.1748 130.474 16.1748 130.332 16.1748H130.12V16.5633Z" fill="#0066B2"/>
<path d="M134.22 14.3384V8.93506H137.082V9.64138H135.068V11.2306H136.906V11.9369H135.068V13.6321H137.082V14.3384H134.22Z" fill="#0066B2"/>
<path d="M140.828 14.1264C140.475 14.303 140.015 14.4089 139.45 14.4089C138.814 14.4089 138.355 14.2323 138.001 13.8439C137.648 13.4907 137.471 12.961 137.471 12.3253C137.471 11.6896 137.648 11.1952 137.966 10.8067C138.284 10.4182 138.779 10.2063 139.379 10.2063C139.627 10.2063 139.839 10.2416 140.015 10.3123V8.47583H140.828V14.1264ZM140.015 10.9833C139.874 10.9126 139.697 10.8773 139.45 10.8773C139.097 10.8773 138.814 11.0186 138.602 11.3011C138.425 11.5483 138.319 11.9015 138.319 12.3606C138.319 12.8197 138.425 13.1375 138.602 13.3848C138.814 13.632 139.061 13.7732 139.45 13.7732C139.697 13.7732 139.909 13.7379 140.015 13.6673V10.9833Z" fill="#0066B2"/>
<path d="M144.716 14.1264C144.327 14.303 143.832 14.4089 143.196 14.4089C142.1 14.4089 141.57 13.9145 141.57 12.961V10.3123H142.383V12.9963C142.383 13.4907 142.666 13.7732 143.196 13.7732C143.514 13.7732 143.761 13.7379 143.903 13.6673V10.3476H144.716V14.1264Z" fill="#0066B2"/>
<path d="M148.073 14.1616C147.79 14.3382 147.437 14.4441 147.048 14.4441C146.553 14.4441 146.165 14.2676 145.811 13.9497C145.458 13.5612 145.246 13.0315 145.246 12.3605C145.246 11.6895 145.422 11.1598 145.811 10.7713C146.129 10.4534 146.553 10.2769 147.048 10.2769C147.472 10.2769 147.79 10.3828 148.073 10.5594L147.79 11.1598C147.613 11.0185 147.401 10.9479 147.119 10.9479C146.836 10.9479 146.589 11.0538 146.412 11.301C146.2 11.5482 146.094 11.9014 146.094 12.3958C146.094 12.8549 146.2 13.2081 146.412 13.4553C146.589 13.7025 146.836 13.8085 147.119 13.8085C147.366 13.8085 147.613 13.7378 147.79 13.5966L148.073 14.1616Z" fill="#0066B2"/>
<path d="M151.571 14.1265C151.218 14.303 150.723 14.409 150.123 14.409C148.956 14.409 148.391 13.9852 148.391 13.1376C148.391 12.6432 148.638 12.2547 149.133 12.0428C149.486 11.8662 150.052 11.7956 150.794 11.7603V11.5131C150.794 11.054 150.511 10.8421 149.946 10.8421C149.557 10.8421 149.168 10.9127 148.815 11.0893L148.603 10.5242C149.027 10.3476 149.486 10.2417 150.017 10.2417C151.041 10.2417 151.571 10.7008 151.571 11.619V14.1265ZM150.794 12.3253C150.264 12.3607 149.875 12.396 149.663 12.5019C149.31 12.6432 149.133 12.8551 149.133 13.1729C149.133 13.632 149.451 13.8439 150.087 13.8439C150.405 13.8439 150.617 13.8086 150.794 13.738V12.3253Z" fill="#0066B2"/>
<path d="M154.187 14.3029C154.045 14.3736 153.904 14.4089 153.692 14.4089C152.95 14.4089 152.596 14.0204 152.596 13.2435V10.9479H152.066V10.3476H152.596V9.42934L153.409 9.18213V10.3476H154.222V10.9479H153.409V13.2082C153.409 13.5613 153.586 13.7026 153.939 13.7026C154.045 13.7026 154.151 13.7026 154.222 13.6673V14.3029H154.187Z" fill="#0066B2"/>
<path d="M155.424 9.4293C155.317 9.53524 155.211 9.57056 155.07 9.57056C154.929 9.57056 154.823 9.53524 154.717 9.4293C154.611 9.32335 154.575 9.2174 154.575 9.11145C154.575 9.0055 154.611 8.86424 154.717 8.79361C154.823 8.68766 154.929 8.65234 155.07 8.65234C155.211 8.65234 155.317 8.68766 155.424 8.79361C155.53 8.89956 155.565 9.0055 155.565 9.11145C155.565 9.2174 155.53 9.35866 155.424 9.4293ZM154.681 10.3122H155.494V14.3382H154.681V10.3122Z" fill="#0066B2"/>
<path d="M159.17 13.8086C158.851 14.1971 158.427 14.409 157.862 14.409C157.297 14.409 156.872 14.1971 156.554 13.8086C156.236 13.4201 156.095 12.9257 156.095 12.3253C156.095 11.6897 156.236 11.1952 156.554 10.8421C156.872 10.4536 157.297 10.2417 157.862 10.2417C158.427 10.2417 158.851 10.4536 159.17 10.8421C159.488 11.2305 159.629 11.725 159.629 12.3253C159.629 12.9257 159.488 13.4555 159.17 13.8086ZM158.569 11.2659C158.392 11.0187 158.18 10.8774 157.862 10.8774C157.544 10.8774 157.332 11.0187 157.155 11.2659C156.978 11.5131 156.908 11.8662 156.908 12.3253C156.908 12.7845 156.978 13.1023 157.155 13.3848C157.332 13.632 157.544 13.7733 157.862 13.7733C158.18 13.7733 158.392 13.632 158.569 13.3848C158.745 13.1376 158.816 12.7845 158.816 12.3253C158.816 11.8662 158.745 11.5131 158.569 11.2659Z" fill="#0066B2"/>
<path d="M162.597 14.3384V11.6543C162.597 11.1599 162.315 10.8774 161.749 10.8774C161.467 10.8774 161.219 10.9127 161.007 10.9833V14.303H160.194V10.5242C160.654 10.3476 161.184 10.2417 161.749 10.2417C162.88 10.2417 163.41 10.7008 163.41 11.5837V14.3384H162.597V14.3384Z" fill="#0066B2"/>
</svg>
