<svg width="84" height="70" viewBox="0 0 84 70" fill="none" xmlns="http://www.w3.org/2000/svg">
<path d="M80.2992 0.466583H3.27229C1.63362 0.466583 0.309723 1.8681 0.309723 3.60284V66.328C0.309723 68.0627 1.63362 69.4642 3.27229 69.4642H80.2992C81.9378 69.4642 83.2617 68.0627 83.2617 66.328V3.60284C83.2617 1.8681 81.9378 0.466583 80.2992 0.466583ZM25.6767 14.5797C28.9448 14.5797 31.6019 17.3926 31.6019 20.8522C31.6019 24.3119 28.9448 27.1248 25.6767 27.1248C22.4087 27.1248 19.7516 24.3119 19.7516 20.8522C19.7516 17.3926 22.4087 14.5797 25.6767 14.5797ZM73.2538 57.419C73.1189 57.539 72.9485 57.6049 72.7724 57.6053H10.7898C10.3825 57.6053 10.0492 57.2524 10.0492 56.8212C10.0492 56.635 10.114 56.4586 10.2251 56.3115L25.9915 36.5139C26.2507 36.1807 26.7229 36.1415 27.0377 36.4159C27.0655 36.4453 27.1025 36.4747 27.1303 36.5139L36.3327 48.0789L50.9697 29.7024C51.2289 29.3691 51.7011 29.3299 52.0159 29.6044C52.0436 29.6338 52.0807 29.6632 52.1084 29.7024L73.3649 56.3213C73.6056 56.6448 73.5686 57.1446 73.2538 57.419Z" fill="#828282"/>
</svg>
